<svg xmlns="http://www.w3.org/2000/svg" viewBox="0 0 184.832 54.89">
  <defs>
    <style>
      .cls-1 {
        fill: rgba(41,70,97,0.73);
      }
    </style>
  </defs>
  <g id="logo" transform="translate(-2.437 -0.87)">
    <g id="Group_1" data-name="Group 1">
      <path id="Path_1" data-name="Path 1" class="cls-1" d="M31.15,21.837h-.857A16.067,16.067,0,0,0,28.9,18.516a10.359,10.359,0,0,0-1.821-2.357A8.761,8.761,0,0,0,23.838,14.1a11.8,11.8,0,0,0-4.044-.669A11.783,11.783,0,0,0,14.41,14.6a9.946,9.946,0,0,0-3.884,3.589,15.576,15.576,0,0,0-2.008,4.473,19.623,19.623,0,0,0-.67,5.223,21.4,21.4,0,0,0,.429,4.366,16.707,16.707,0,0,0,1.339,3.937,14.072,14.072,0,0,0,2.035,3.268,10.7,10.7,0,0,0,2.571,2.25,13.6,13.6,0,0,0,2.919,1.313,10,10,0,0,0,2.973.455,13.694,13.694,0,0,0,1.714-.107A8.425,8.425,0,0,0,23.489,43a11.618,11.618,0,0,0,1.634-.535q.777-.321,1.58-.75V32.5a15.43,15.43,0,0,0-.107-1.981,4.875,4.875,0,0,0-.268-1.179,5.481,5.481,0,0,0-.482-.616,2.682,2.682,0,0,0-.643-.509,4.727,4.727,0,0,0-1.071-.268,11.169,11.169,0,0,0-1.661-.107V26.98H34.845v.857h-.589a3.448,3.448,0,0,0-1.554.321,2.178,2.178,0,0,0-.964.911,4.565,4.565,0,0,0-.348,1.285,14.166,14.166,0,0,0-.134,2.143v9.75q-1.339.7-2.678,1.231t-2.625.911a26.348,26.348,0,0,1-2.813.509,24.394,24.394,0,0,1-3.08.188,20.489,20.489,0,0,1-8.115-1.5A15.292,15.292,0,0,1,6.026,39.14,15.962,15.962,0,0,1,2.437,28.908a16.914,16.914,0,0,1,.509-4.125,16.6,16.6,0,0,1,1.527-3.91A17.585,17.585,0,0,1,7.312,16.8a16.9,16.9,0,0,1,3.75-3,13.82,13.82,0,0,1,3.8-1.527,18.747,18.747,0,0,1,4.446-.509c.571,0,1.125.019,1.661.054a9.535,9.535,0,0,1,1.5.214q.75.161,1.741.456t2.33.777c.429.179.785.313,1.071.4a2.372,2.372,0,0,0,.643.134.9.9,0,0,0,.455-.107,1.17,1.17,0,0,0,.349-.321,1.53,1.53,0,0,0,.241-.616,9.564,9.564,0,0,0,.134-.991h.857Zm27.8-8.892a15.377,15.377,0,0,1,4.928,3.536,15.467,15.467,0,0,1,3.428,5.276,17.818,17.818,0,0,1,1.125,6.455,18.788,18.788,0,0,1-1.125,6.643,15.816,15.816,0,0,1-3.428,5.41,15.59,15.59,0,0,1-5.089,3.616,14.953,14.953,0,0,1-6,1.205,15.311,15.311,0,0,1-6.08-1.179,15.981,15.981,0,0,1-8.383-8.865A19.332,19.332,0,0,1,37.2,28.266a17.445,17.445,0,0,1,1.312-6.856A16.1,16.1,0,0,1,42.4,15.892a15.477,15.477,0,0,1,10.767-4.124A14.2,14.2,0,0,1,58.951,12.945ZM48.827,14.258a8.114,8.114,0,0,0-3,2.384,13.27,13.27,0,0,0-2.41,4.875,25.108,25.108,0,0,0-.8,6.7,25.965,25.965,0,0,0,.83,6.91,14.112,14.112,0,0,0,2.491,5.089A8.187,8.187,0,0,0,48.907,42.6a9.04,9.04,0,0,0,3.83.776,9.628,9.628,0,0,0,4.1-.856,9.316,9.316,0,0,0,3.294-2.625,11.335,11.335,0,0,0,2.223-4.526,25.879,25.879,0,0,0,.723-6.509,28.2,28.2,0,0,0-.8-7.124,13.74,13.74,0,0,0-2.411-5.089,8.437,8.437,0,0,0-3.08-2.357,9.93,9.93,0,0,0-4.1-.8A9.238,9.238,0,0,0,48.827,14.258Z"/>
    </g>
    <g id="Group_2" data-name="Group 2">
      <path id="Path_2" data-name="Path 2" class="cls-1" d="M149.237,51.809q1.392-.481,3.481-1.285a19.506,19.506,0,0,1-6.214,3.643,46.067,46.067,0,0,1-6.749,1.339,41.568,41.568,0,0,1-9.643-.054,49.848,49.848,0,0,1-6.615-1.446,39.771,39.771,0,0,1-7.794-3.16q-4.019-2.142-7.687-4.285t-5.651-3.536a28.063,28.063,0,0,1-4.66,1.474,29.711,29.711,0,0,1-5.009.563,21.723,21.723,0,0,1-6.08-.7q-.429-.106-4.018-1.474a19.767,19.767,0,0,1-7.338-5.544q-.483-.59-1.982-2.731a16.882,16.882,0,0,1-2.357-5.946q-.269-1.446-.536-3.723a22.053,22.053,0,0,1,0-4.848q.321-1.929.884-4.071a14.222,14.222,0,0,1,1.794-4.071q.642-1.017,2.651-3.616a17.179,17.179,0,0,1,5.866-4.58,33.186,33.186,0,0,1,3.348-1.553q2.758-1.178,8.6-1.339,2.036.16,3.616.375a7.579,7.579,0,0,1,1.848.375,25.731,25.731,0,0,1,8.41,4.5q1.553,1.5,3.428,3.616a16.081,16.081,0,0,1,3.054,5.7,40.793,40.793,0,0,1,.884,4.018,23.505,23.505,0,0,1,.027,6.856q-.216,1.233-.831,3.8A19.286,19.286,0,0,1,110.4,36.6q-.858.965-2.17,2.276a15.831,15.831,0,0,1-2.759,2.224l5.893,3.589a79.8,79.8,0,0,0,10.606,5.678q1.659.644,4.393,1.5a33.375,33.375,0,0,0,4.82,1.179q2.035.267,5.116.429a25.279,25.279,0,0,0,5.115-.161l4.232-.669A22.183,22.183,0,0,0,149.237,51.809ZM102.795,39.756a12.584,12.584,0,0,0,4.848-5.169,30.989,30.989,0,0,0,1.526-3.99,28.672,28.672,0,0,0,.589-3.964,36.882,36.882,0,0,0,.161-5.2,21.474,21.474,0,0,0-.911-5.946,29.347,29.347,0,0,0-1.5-3.856q-2.037-4.875-10.018-7.66A18.31,18.31,0,0,0,92.4,3.439q-2.411.108-3.964.321-5.411.858-7.848,3.964a34.706,34.706,0,0,0-3.133,4.446,18.452,18.452,0,0,0-1.848,7.2q-.187,3.777-.134,6.294.644,6.268,2.759,9.187a37.069,37.069,0,0,0,3.348,4.152,13.852,13.852,0,0,0,6,3.026,22.625,22.625,0,0,0,5.812.535,27.158,27.158,0,0,0,6.134-1.151A24.527,24.527,0,0,0,94.439,39.7,28.77,28.77,0,0,0,85.6,39.06a9.59,9.59,0,0,1,2.384-.776q1.74-.4,3.562-.67a14.785,14.785,0,0,1,7.821.777Q102.9,39.81,102.795,39.756Zm39.746-26.248h1.232a4.758,4.758,0,0,1,1.554.241,2.441,2.441,0,0,1,1.66,2.09,14.964,14.964,0,0,1,.161,2.437V31.132a33.623,33.623,0,0,1-.241,4.366,12.405,12.405,0,0,1-.67,2.865,6.7,6.7,0,0,1-1.313,1.929,9.014,9.014,0,0,1-2.063,1.554,9.78,9.78,0,0,1-2.624,1.018,13.352,13.352,0,0,1-3,.321,11.051,11.051,0,0,1-2.224-.214,6.889,6.889,0,0,1-3.347-1.634,7.9,7.9,0,0,1-1.125-1.206,8.369,8.369,0,0,1-.75-1.606,10.532,10.532,0,0,1-.481-2.143q-.16-1.177-.241-2.25t-.081-1.982V18.276a15.148,15.148,0,0,1,.135-2.223,2.923,2.923,0,0,1,.455-1.312A2.492,2.492,0,0,1,130.7,13.8a4.254,4.254,0,0,1,1.66-.3h1.232v-.857H119.828v.857h1.178a5.24,5.24,0,0,1,1.581.214,2.093,2.093,0,0,1,1.044.7,2.828,2.828,0,0,1,.643,1.393,11.66,11.66,0,0,1,.215,2.464V30.7q0,2.894.188,4.849a12.526,12.526,0,0,0,.563,2.973,9.1,9.1,0,0,0,1.5,2.759,10.406,10.406,0,0,0,2.3,2.115,9.713,9.713,0,0,0,3.321,1.366,20.7,20.7,0,0,0,4.607.455,17.621,17.621,0,0,0,4.312-.481,10.829,10.829,0,0,0,3.295-1.393,11.677,11.677,0,0,0,2.33-2.09,8.121,8.121,0,0,0,1.419-2.464A18.344,18.344,0,0,0,149,35.6a33.211,33.211,0,0,0,.241-4.258V18.435a14.059,14.059,0,0,1,.134-2.169,2.95,2.95,0,0,1,.4-1.2,3.053,3.053,0,0,1,1.206-1.179,3.611,3.611,0,0,1,1.687-.375h1.179V12.65h-11.3v.858ZM171.949,11.9a15.788,15.788,0,0,0-5.785,1.044,15.961,15.961,0,0,0-4.928,3.081,15.461,15.461,0,0,0-3.91,5.517,17.917,17.917,0,0,0-1.286,6.911,19.173,19.173,0,0,0,1.125,6.723,15.99,15.99,0,0,0,8.383,8.865,15.905,15.905,0,0,0,12.08-.027,15.627,15.627,0,0,0,5.089-3.615,16.577,16.577,0,0,0,3.4-5.41,18.392,18.392,0,0,0,1.151-6.643,17.818,17.818,0,0,0-1.125-6.455,15.457,15.457,0,0,0-3.428-5.276,15.28,15.28,0,0,0-4.955-3.535A14.384,14.384,0,0,0,171.949,11.9Zm-.428,1.715a9.752,9.752,0,0,1,4.071.8,8.259,8.259,0,0,1,3.054,2.411,12.8,12.8,0,0,1,2.464,5.035,28.156,28.156,0,0,1,.8,7.125,24.991,24.991,0,0,1-.75,6.509,12.049,12.049,0,0,1-2.2,4.526,9.256,9.256,0,0,1-3.321,2.625,9.81,9.81,0,0,1-4.125.856,8.937,8.937,0,0,1-3.776-.776,8.185,8.185,0,0,1-2.973-2.384,14.12,14.12,0,0,1-2.491-5.089,26.012,26.012,0,0,1-.83-6.91,25.1,25.1,0,0,1,.8-6.7,13.286,13.286,0,0,1,2.41-4.875,8.621,8.621,0,0,1,3-2.357A8.958,8.958,0,0,1,171.521,13.616Z"/>
    </g>
  </g>
</svg>
